# xmcd
#
# Track frame offsets:
#	190
#	21070
#	35360
#	45575
#	59720
#	71195
#	88815
#	100935
#	113525
#	122327
#	140100
#	153462
#	174797
#	183560
#
# Disc length: 2647 seconds
#
# Revision: 1
# Processed by: cddbd v1.5.1PL2 Copyright (c) Steve Scherf et al.
# Submitted via: audiograbber 1.83.01
#
DISCID=bd0a550e
DTITLE=Various Artist - Broke Down
DYEAR=1992
DGENRE=Blues
TTITLE0=Billy Rizor - T Model Ford
TTITLE1=Texas Pete Mayes - Ride My Automobile
TTITLE2=Big Walter - I Wanta Be Your Chauffeur
TTITLE3=Tommy Lee Thompson - Highway 80 Blues
TTITLE4=Jerry 'Boogie' McCain - Stay Out Of Automobiles
TTITLE5=Steve Owens - Mercury Boogie
TTITLE6=The Owens Brothers - Rocket 88
TTITLE7=Willie Love - V-8 Ford
TTITLE8=Johnny Winter - Road Runner
TTITLE9=T-Bone Singleton - Chrysler 300
TTITLE10=Willie Love - Little Car Blues
TTITLE11=Clarence Green - Trade You Off, Baby
TTITLE12=Peppermint Harris - Cadillac Funeral
TTITLE13=O S Grant - Greyhound Bus
EXTD=
EXTT0=
EXTT1=
EXTT2=
EXTT3=
EXTT4=
EXTT5=
EXTT6=
EXTT7=
EXTT8=
EXTT9=
EXTT10=
EXTT11=
EXTT12=
EXTT13=
PLAYORDER=
